<?xml version="1.0" encoding="UTF-8"?>
<svg width="1px" height="1px" viewBox="0 0 1 1" version="1.1" xmlns="http://www.w3.org/2000/svg" xmlns:xlink="http://www.w3.org/1999/xlink">
    <!-- Generator: Sketch 59 (86127) - https://sketch.com -->
    <title>Path</title>
    <desc>Created with Sketch.</desc>
    <g id="Page-1" stroke="none" stroke-width="1" fill="none" fill-rule="evenodd">
        <path d="M2.39737103e-05,0.211480256 C-0.000820715704,0.155845197 0.0206861667,0.102185621 0.0597516897,0.062460695 C0.0996891502,0.0208175069 0.152871886,0 0.219291722,0 C0.285717007,0 0.339319363,0.0240681987 0.380104237,0.0722073209 C0.38215874,0.0752999741 0.385463928,0.0773435775 0.389150588,0.0778040695 C0.392850873,0.0773681007 0.396164235,0.0753190477 0.398202389,0.0722073209 C0.438145299,0.0240681987 0.482938361,0 0.532592475,0 C0.582243864,0 0.622966068,0.0215722777 0.654761812,0.0647168332 C0.659105151,0.0706732559 0.66308609,0.0737441107 0.666887193,0.0737441107 C0.670688295,0.0737441107 0.674126998,0.0706732559 0.677568427,0.0647168332 C0.701271501,0.0215722777 0.740879261,0 0.796383529,0 C0.867391936,0 0.91348473,0.0441064114 0.934661911,0.132321959 C0.946427618,0.181602774 0.959185152,0.206273155 0.972942691,0.206335825 C0.975517631,0.206185961 0.978010827,0.205376694 0.980182496,0.203989769 C0.982487681,0.202531998 0.985144366,0.201720007 0.98787462,0.201640987 C0.995926417,0.201640987 1,0.206335825 1,0.215632859 C1,0.219965298 0.997013614,0.22384542 0.990950924,0.227275949 C0.896291214,0.281973675 0.848961358,0.348164628 0.848961358,0.425848806 C0.847901409,0.465358472 0.857263838,0.504451243 0.876111311,0.539217024 C0.894209463,0.571108137 0.91231034,0.58702372 0.930408491,0.586963775 C0.936833581,0.587350697 0.943149678,0.585176303 0.947964407,0.580914709 C0.950730084,0.577606796 0.954634729,0.575448751 0.958915397,0.574868367 C0.967332318,0.574868367 0.971493095,0.579383368 0.971493095,0.588318003 C0.971373203,0.592691314 0.969321425,0.596792145 0.965882722,0.599508775 L0.877830663,0.684173902 C0.872312933,0.690277465 0.864609911,0.693975024 0.856383726,0.694462764 C0.84775427,0.694190284 0.839429992,0.691220247 0.832582558,0.685980448 C0.778647777,0.648070242 0.751710359,0.586421539 0.751770304,0.501037063 C0.75183025,0.415649862 0.792010218,0.339919369 0.872310209,0.273851033 C0.87675709,0.270902794 0.879672631,0.266145286 0.880274812,0.260853715 C0.880274812,0.256521276 0.87620123,0.252458592 0.868149432,0.248755583 C0.840999479,0.236572982 0.822176529,0.206515663 0.810683304,0.158496432 C0.79421186,0.0889376209 0.769293523,0.0541554907 0.73593374,0.0541554907 C0.720590366,0.0538094405 0.706563072,0.0627658731 0.700456785,0.0768122406 C0.694298727,0.089103834 0.691192449,0.102695159 0.691410434,0.116436349 C0.691546674,0.127635295 0.693285099,0.138760672 0.696568489,0.149471879 C0.705579417,0.182741743 0.709963628,0.217093354 0.709598504,0.251556682 C0.709598504,0.371360889 0.673399476,0.484669162 0.601004143,0.591476051 C0.554246497,0.660135676 0.513796773,0.694462764 0.479649522,0.694462764 C0.463540478,0.694462764 0.447703914,0.685438212 0.432319667,0.66837821 C0.416935421,0.651320934 0.404175161,0.642293656 0.39422145,0.642293656 C0.387436686,0.642072947 0.381147837,0.645808654 0.378112405,0.651860445 C0.374583783,0.658181992 0.370420282,0.660887723 0.365714544,0.660887723 C0.356665468,0.660887723 0.352229487,0.656914957 0.352229487,0.648792315 C0.352213138,0.645342713 0.353185893,0.641958505 0.355036035,0.639042964 C0.392924443,0.575982812 0.428428646,0.544451374 0.461548646,0.544451374 C0.482287133,0.544677533 0.501823982,0.554189825 0.514761354,0.570356091 C0.529965763,0.587565957 0.542390872,0.596170889 0.552044855,0.596170889 C0.56172881,0.596170889 0.570145731,0.589941986 0.578652571,0.577576823 C0.605197617,0.536840995 0.618440168,0.471309445 0.618380222,0.380990348 C0.618380222,0.289763892 0.596600859,0.20934401 0.553039408,0.139722528 C0.5249276,0.0950738808 0.493916599,0.0727195842 0.460011856,0.0726596385 C0.443515889,0.0715833407 0.427423193,0.0780629259 0.416300541,0.0902618759 C0.412491264,0.0940493543 0.410177905,0.0990793435 0.409788258,0.10443086 C0.40989725,0.109324609 0.411335947,0.114098466 0.413949035,0.118240169 C0.44314804,0.166981473 0.457780241,0.230766423 0.457840187,0.309592294 C0.457840187,0.406532666 0.416752859,0.506361331 0.334583652,0.609075564 C0.288796036,0.666241964 0.249730513,0.694825163 0.217392533,0.694825163 C0.185057277,0.694825163 0.156882798,0.676201124 0.132869095,0.638953046 C0.114770943,0.611876663 0.0996591773,0.59797471 0.0866291619,0.59797471 C0.0811032583,0.597952912 0.0758716335,0.600443383 0.0724193061,0.604745849 C0.0695746102,0.609051041 0.0649042951,0.611813992 0.0597489649,0.612239062 C0.0563429592,0.612778573 0.0528770078,0.611683202 0.0504028853,0.609285374 C0.0479260379,0.606887546 0.0467298487,0.603465191 0.0471712671,0.600051011 C0.0474219491,0.595407944 0.0492393937,0.590985586 0.0523293221,0.587506011 C0.090879857,0.538824653 0.125751906,0.514483973 0.156942744,0.514483973 C0.188133581,0.514483973 0.215675906,0.533108013 0.239566992,0.570356091 C0.25703299,0.597435199 0.272237399,0.610882109 0.285357333,0.610882109 C0.296940477,0.609606901 0.307373754,0.603298978 0.313864238,0.593642271 C0.355188624,0.543999056 0.37588079,0.476453876 0.375943461,0.391009455 C0.376003406,0.305559584 0.346591866,0.227998022 0.287708839,0.158316595 C0.250002994,0.113667947 0.208193593,0.0913136505 0.162283361,0.0912537048 C0.116370404,0.0911937591 0.0821931801,0.101904966 0.0597489649,0.123387325 C0.0374273659,0.144866959 0.0262365936,0.174232178 0.0261766479,0.211480256 C0.0261766479,0.271052659 0.0531140658,0.300837497 0.106988902,0.300837497 C0.11914698,0.300766652 0.13126691,0.299529591 0.14318793,0.297137213 C0.1551144,0.294793881 0.167231606,0.293554095 0.179386959,0.293436928 C0.240741383,0.293436928 0.271419958,0.33161689 0.271419958,0.407976813 C0.271419958,0.419529984 0.267076619,0.425216651 0.258297299,0.425216651 C0.249520703,0.425216651 0.244362648,0.419529984 0.244362648,0.407976813 C0.244362648,0.389083018 0.229883037,0.37963612 0.200923814,0.37963612 C0.187583171,0.379835031 0.174288849,0.381224681 0.161196164,0.383788723 C0.147653885,0.386404535 0.133904521,0.387794185 0.12011156,0.3879386 C0.0400513527,0.388061216 2.39737103e-05,0.32924086 2.39737103e-05,0.211480256 Z" id="Path"></path>
    </g>
</svg>