<?xml version="1.0" encoding="UTF-8"?>
<svg width="736px" height="512px" viewBox="0 0 736 512" version="1.1" xmlns="http://www.w3.org/2000/svg" xmlns:xlink="http://www.w3.org/1999/xlink">
    <!-- Generator: Sketch 59 (86127) - https://sketch.com -->
    <title>Path</title>
    <desc>Created with Sketch.</desc>
    <g id="Page-1" stroke="none" stroke-width="1" fill="none" fill-rule="evenodd">
        <g id="test_task" transform="translate(-352.000000, -1280.000000)" stroke="#000000">
            <path d="M352.517597,1436.23028 C351.896597,1395.26161 367.734316,1355.74805 396.496873,1326.50006 C425.907664,1295.83314 465.074072,1280.5 513.960124,1280.5 C562.861184,1280.5 602.345491,1298.22905 632.412986,1333.72349 C633.828817,1335.85475 636.100288,1337.26967 638.638281,1337.6043 C641.182877,1337.28664 643.458606,1335.8693 644.895764,1333.68089 C674.30379,1298.2384 707.317605,1280.5 743.922877,1280.5 C780.52932,1280.5 810.567236,1296.41209 833.99917,1328.20756 C837.149861,1332.52839 839.945309,1334.62817 842.495199,1334.62817 C845.008876,1334.62817 847.404063,1332.57594 849.897004,1328.2614 C867.386044,1296.42769 896.628554,1280.5 937.545511,1280.5 C989.919253,1280.5 1023.93405,1313.04942 1039.52817,1378.00819 C1048.10503,1413.93248 1057.40078,1431.9061 1067.11088,1431.95132 C1068.91411,1431.84637 1070.66168,1431.27983 1072.18671,1430.30588 C1073.95517,1429.18753 1075.99261,1428.56524 1078.09997,1428.50446 C1084.30465,1428.50446 1087.5,1432.19054 1087.5,1439.27449 C1087.5,1442.67509 1085.18122,1445.66582 1080.60814,1448.25344 C1011.26974,1488.31962 976.637637,1536.75271 976.637457,1593.58639 C975.861817,1622.49841 982.712891,1651.10573 996.500558,1676.53846 C1009.70409,1699.80466 1022.86165,1711.3746 1035.94989,1711.33225 C1040.53499,1711.60837 1045.04067,1710.05625 1048.42228,1707.07062 C1050.5332,1704.54584 1053.51256,1702.90042 1056.8439,1702.45332 C1063.28937,1702.45332 1066.57593,1705.98064 1066.57574,1712.83905 C1066.48362,1716.19946 1064.90635,1719.34728 1062.30447,1721.39979 L997.698612,1783.51887 C993.559758,1788.09716 987.782713,1790.86904 981.569875,1791.23534 C975.134304,1791.03214 968.922963,1788.81787 963.828074,1784.91863 C924.095416,1756.99096 904.255296,1711.58557 904.299404,1648.7608 C904.343515,1585.92748 933.908791,1530.20438 992.999405,1481.5899 C996.140482,1479.50739 998.199637,1476.14715 998.621712,1472.4666 C998.621712,1469.53636 995.764814,1466.68619 990.016988,1464.04275 C970.042317,1455.07981 956.076249,1433.05375 947.555,1397.45158 C935.512656,1346.59683 917.354246,1321.25012 893.164091,1321.25 C882.104285,1321.00056 871.994484,1327.45663 867.582315,1337.60414 C863.096646,1346.55761 860.83653,1356.45449 860.995221,1366.45818 C861.094611,1374.628 862.362506,1382.74684 864.763883,1390.58163 C871.389702,1415.04527 874.61377,1440.30508 874.345302,1465.64258 C874.345302,1553.68064 847.744318,1636.94618 794.550311,1715.4248 C760.14396,1765.94759 730.345719,1791.23559 705.062749,1791.23559 C693.225025,1791.23559 681.477544,1784.70612 669.951343,1771.92441 C658.556755,1759.29067 649.363027,1752.94347 642.342288,1752.94321 C637.557432,1752.78756 633.12211,1755.42177 630.971095,1759.7092 C628.38202,1764.34754 625.214601,1766.59152 621.434476,1766.59152 C614.525864,1766.59152 611.036443,1763.46287 611.036449,1757.21586 C611.023989,1754.58684 611.765718,1752.00924 613.16786,1749.79996 C641.06045,1703.3765 667.239536,1680.12725 691.782158,1680.12728 C707.153259,1680.2949 721.634935,1687.34509 731.209545,1699.31026 C742.282866,1711.84415 751.302146,1718.08937 758.200923,1718.08937 C764.977883,1718.08937 771.029143,1713.80067 777.31208,1704.66835 C796.732526,1674.86588 806.435025,1626.85399 806.391083,1560.64687 C806.391083,1493.77782 790.429876,1434.84172 758.507808,1383.82273 C737.956859,1351.18264 715.336213,1334.87582 690.616148,1334.83111 C678.659243,1334.05096 666.995324,1338.74778 658.917135,1347.60677 C656.205814,1350.30258 654.560426,1353.88189 654.284458,1357.64111 C654.362432,1361.14216 655.391646,1364.55785 657.267516,1367.53132 C678.75128,1403.39372 689.510634,1450.29995 689.554697,1508.24071 C689.554697,1579.5181 659.353972,1652.89783 598.974654,1728.37397 C565.280318,1770.44176 536.498201,1791.50159 512.566119,1791.50159 C488.643897,1791.50159 467.816733,1777.73432 450.110226,1750.26932 C436.680167,1730.1768 425.765442,1720.41337 416.583832,1720.41337 C412.678639,1720.39796 408.983483,1722.15828 406.57293,1725.15903 C404.400038,1728.4475 400.833136,1730.55716 396.933965,1730.87725 C394.278642,1731.29785 391.576737,1730.44395 389.647941,1728.57464 C387.7171,1726.70539 386.783484,1724.03669 387.124437,1721.41042 C387.314571,1717.88881 388.693189,1714.53543 391.017743,1711.91894 C419.399099,1676.07916 445.11205,1658.13118 468.195974,1658.13118 C491.281103,1658.13118 511.642809,1671.90004 529.262352,1699.37029 C541.992954,1719.10769 553.044999,1728.8874 562.397567,1728.8904 C570.754268,1727.9704 578.280049,1723.41944 582.992069,1716.41347 C613.242578,1680.07338 628.39658,1630.60849 628.4425,1568.00055 C628.486415,1505.40156 606.94203,1448.58509 563.796284,1397.52697 C536.20959,1364.86072 505.655402,1348.524 472.115334,1348.48021 C438.53395,1348.43636 413.570757,1356.25972 397.202433,1371.92657 C380.921789,1387.59311 372.757451,1409.01629 372.71366,1436.22649 C372.71366,1479.68681 392.273474,1501.31469 431.52694,1501.3147 C440.42419,1501.26285 449.288134,1500.35712 458.003543,1498.60806 C466.791115,1496.88147 475.715859,1495.96896 484.670028,1495.88267 C530.007592,1495.88267 552.722249,1524.15204 552.722249,1580.45494 C552.722249,1589.18069 549.348664,1593.60898 542.590217,1593.60898 C535.694757,1593.60898 531.862184,1589.00683 531.862184,1580.45494 C531.862184,1566.91898 521.491509,1560.15287 500.485534,1560.15282 C490.723382,1560.29837 480.995012,1561.31525 471.412811,1563.19181 C461.440707,1565.11801 451.318644,1566.14057 441.162651,1566.24689 C382.07335,1566.33739 352.518459,1522.90964 352.517597,1436.23028 Z" id="Path"></path>
        </g>
    </g>
</svg>