<svg width="736" height="512" xmlns="http://www.w3.org/2000/svg">
 <!-- Generator: Sketch 59 (86127) - https://sketch.com -->

 <title>Path</title>
 <desc>Created with Sketch.</desc>
 <g>
  <title>background</title>
  <rect fill="none" id="canvas_background" height="402" width="582" y="-1" x="-1"/>
 </g>
 <g>
  <title>Layer 1</title>
  <g stroke="#000000" id="test_task">
   <path id="Path" d="m0.5176,156.23028c-0.621,-40.96867 15.21672,-80.48223 43.97927,-109.73022c29.41079,-30.66692 68.5772,-46.00006 117.46325,-46.00006c48.90106,0 88.38537,17.72905 118.45287,53.22349c1.41583,2.13126 3.6873,3.54618 6.22529,3.88081c2.5446,-0.31766 4.82033,-1.735 6.25748,-3.92341c29.40803,-35.44249 62.42184,-53.18089 99.02712,-53.18089c36.60644,0 66.64436,15.91209 90.07629,47.70756c3.15069,4.32083 5.94614,6.42061 8.49603,6.42061c2.51368,0 4.90886,-2.05223 7.4018,-6.36677c17.48904,-31.83371 46.73155,-47.7614 87.64851,-47.7614c52.37374,0 86.38854,32.54942 101.98266,97.50819c8.57686,35.92429 17.87261,53.89791 27.58271,53.94313c1.80323,-0.10495 3.5508,-0.67149 5.07583,-1.64544c1.76846,-1.11835 3.8059,-1.74064 5.91326,-1.80142c6.20468,0 9.40003,3.68608 9.40003,10.77003c0,3.4006 -2.31878,6.39133 -6.89186,8.97895c-69.3384,40.06618 -103.9705,88.49927 -103.97068,145.33295c-0.77564,28.91202 6.07543,57.51934 19.8631,82.95207c13.20353,23.2662 26.36109,34.83614 39.44933,34.79379c4.5851,0.27612 9.09078,-1.276 12.47239,-4.26163c2.11092,-2.52478 5.09028,-4.1702 8.42162,-4.6173c6.44547,0 9.73203,3.52732 9.73184,10.38573c-0.09212,3.36041 -1.66939,6.50823 -4.27127,8.56074l-64.60586,62.11908c-4.13885,4.57829 -9.9159,7.35017 -16.12873,7.71647c-6.43558,-0.2032 -12.64692,-2.41747 -17.74181,-6.31671c-39.73265,-27.92767 -59.57277,-73.33306 -59.52867,-136.15783c0.04412,-62.83332 29.60939,-118.55642 88.70001,-167.1709c3.14107,-2.08251 5.20023,-5.44275 5.6223,-9.1233c0,-2.93024 -2.8569,-5.78041 -8.60472,-8.42385c-19.97467,-8.96294 -33.94074,-30.989 -42.46199,-66.59117c-12.04234,-50.85475 -30.20075,-76.20146 -54.39091,-76.20158c-11.0598,-0.24944 -21.16961,6.20663 -25.58178,16.35414c-4.48566,8.95347 -6.74578,18.85035 -6.58709,28.85404c0.09939,8.16982 1.36729,16.28866 3.76866,24.12345c6.62582,24.46364 9.84989,49.72345 9.58142,75.06095c0,88.03806 -26.60098,171.3036 -79.79499,249.78222c-34.40635,50.52279 -64.20459,75.81079 -89.48756,75.81079c-11.83773,0 -23.58521,-6.52947 -35.11141,-19.31118c-11.39459,-12.63374 -20.58831,-18.98094 -27.60905,-18.9812c-4.78486,-0.15565 -9.22018,2.47856 -11.3712,6.76599c-2.58907,4.63834 -5.75649,6.88232 -9.53661,6.88232c-6.90862,0 -10.39804,-3.12865 -10.39803,-9.37566c-0.01246,-2.62902 0.72927,-5.20662 2.13141,-7.4159c27.89259,-46.42346 54.07168,-69.67271 78.6143,-69.67268c15.3711,0.16762 29.85278,7.21781 39.42739,19.18298c11.07332,12.53389 20.0926,18.77911 26.99137,18.77911c6.77696,0 12.82822,-4.2887 19.11116,-13.42102c19.42045,-29.80247 29.12294,-77.81436 29.079,-144.02148c0,-66.86905 -15.9612,-125.80515 -47.88327,-176.82414c-20.55095,-32.64009 -43.1716,-48.94691 -67.89166,-48.99162c-11.95691,-0.78015 -23.62083,3.91667 -31.69901,12.77566c-2.71133,2.69581 -4.35671,6.27512 -4.63268,10.03434c0.07797,3.50105 1.10719,6.91674 2.98306,9.89021c21.48376,35.8624 32.24311,82.76863 32.28718,140.70939c0,71.27739 -30.20073,144.65712 -90.58005,220.13326c-33.69433,42.06779 -62.47645,63.12762 -86.40853,63.12762c-23.92222,0 -44.74939,-13.76727 -62.45589,-41.23227c-13.43006,-20.09252 -24.34479,-29.85595 -33.5264,-29.85595c-3.90519,-0.01541 -7.60035,1.74491 -10.0109,4.74566c-2.17289,3.28847 -5.73979,5.39813 -9.63896,5.71822c-2.65533,0.4206 -5.35723,-0.4333 -7.28603,-2.30261c-1.93084,-1.86925 -2.86446,-4.53795 -2.5235,-7.16422c0.19013,-3.52161 1.56875,-6.87499 3.8933,-9.49148c28.38136,-35.83978 54.09431,-53.78776 77.17823,-53.78776c23.08513,0 43.44684,13.76886 61.06638,41.23911c12.7306,19.7374 23.78265,29.51711 33.13522,29.52011c8.3567,-0.92 15.88248,-5.47096 20.5945,-12.47693c30.25051,-36.34009 45.40451,-85.80498 45.45043,-148.41292c0.04391,-62.59899 -21.50047,-119.41546 -64.64622,-170.47358c-27.58669,-32.66625 -58.14088,-49.00297 -91.68095,-49.04676c-33.58138,-0.04385 -58.54457,7.77951 -74.9129,23.44636c-16.28064,15.66654 -24.44498,37.08972 -24.48877,64.29992c0,43.46032 19.55981,65.0882 58.81328,65.08821c8.89725,-0.05185 17.76119,-0.95758 26.4766,-2.70664c8.78757,-1.72659 17.71232,-2.6391 26.66649,-2.72539c45.33756,0 68.05222,28.26937 68.05222,84.57227c0,8.72575 -3.37359,13.15404 -10.13203,13.15404c-6.89546,0 -10.72804,-4.60215 -10.72804,-13.15404c0,-13.53596 -10.37067,-20.30207 -31.37665,-20.30212c-9.76215,0.14555 -19.49052,1.16243 -29.07272,3.03899c-9.9721,1.9262 -20.09417,2.94876 -30.25016,3.05508c-59.0893,0.0905 -88.64419,-43.33725 -88.64505,-130.01661z"/>
  </g>
 </g>
</svg>